<svg xmlns="http://www.w3.org/2000/svg" viewBox="0 0 128 128">
  <defs>
    <radialGradient id="fur" cx="50%" cy="42%" r="58%">
      <stop offset="0%" stop-color="#ffd86a"/>
      <stop offset="54%" stop-color="#f3b72f"/>
      <stop offset="100%" stop-color="#b8791f"/>
    </radialGradient>
    <filter id="soft-fur" x="-18%" y="-18%" width="136%" height="136%">
      <feTurbulence type="fractalNoise" baseFrequency="0.78" numOctaves="3" seed="8"/>
      <feDisplacementMap in="SourceGraphic" scale="5"/>
      <feGaussianBlur stdDeviation="0.55"/>
    </filter>
    <filter id="shadow" x="-20%" y="-20%" width="140%" height="150%">
      <feDropShadow dx="0" dy="7" stdDeviation="7" flood-color="#1f2329" flood-opacity="0.2"/>
    </filter>
  </defs>
  <rect width="128" height="128" fill="#e5ded2"/>
  <ellipse cx="64" cy="113" rx="35" ry="5" fill="#b8aa99" opacity="0.25"/>
  <circle cx="64" cy="62" r="43" fill="url(#fur)" filter="url(#soft-fur)"/>
  <g filter="url(#shadow)">
    <path d="M24 46c8-5 22-5 35-1l-3 21c-1 6-5 10-11 10h-9c-7 0-12-5-13-12l-2-14c0-2 1-3 3-4Z" fill="#111316"/>
    <path d="M69 45c13-4 27-4 35 1 2 1 3 2 3 4l-2 14c-1 7-6 12-13 12h-9c-6 0-10-4-11-10l-3-21Z" fill="#111316"/>
    <path d="M56 51c5-2 9-2 14 0" fill="none" stroke="#111316" stroke-width="5" stroke-linecap="round"/>
    <path d="M29 49c7-2 15-2 24 0" fill="none" stroke="#2a2d31" stroke-width="3" stroke-linecap="round" opacity="0.7"/>
    <path d="M76 49c8-2 16-2 24 0" fill="none" stroke="#2a2d31" stroke-width="3" stroke-linecap="round" opacity="0.7"/>
  </g>
  <path d="M48 81c9 9 23 9 32 0" fill="none" stroke="#1f2329" stroke-width="5" stroke-linecap="round"/>
</svg>
